# xmcd
#
# Track frame offsets:
#	150
#	19309
#	40862
#	66610
#	89405
#	113364
#	140465
#	170029
#	200627
#	227752
#	248051
#	274042
#
# Disc length: 4003 seconds
#
# Revision: 1
# Processed by: cddbd v1.5.2PL0 Copyright (c) Steve Scherf et al.
# Submitted via: EasyCDDAExtractor 16.0.6.1
#
DISCID=ab0fa10c
DTITLE=Dinh Nguyen-Quang Dung-Quang Minh-Xuan Phu - Tu quy Sai Gon
DYEAR=2006
DGENRE=Blues
TTITLE0=Dinh Nguyen - Khi trai tim buon
TTITLE1=Quang Dung - Nhu giac mo dau
TTITLE2=Quang Minh - Chieu nay khong co em
TTITLE3=Dinh Nguyen - Dem nam nghe huong bay
TTITLE4=Xuan Phu - Xin con goi ten nhau
TTITLE5=Quang Minh - Tu giong hat em
TTITLE6=Quang Dung - Mot thoang chiem bao
TTITLE7=Xuan Phu - Bai cho em
TTITLE8=Dinh Nguyen - Muon noi yeu em
TTITLE9=Quang Dung - Nua hon thuong dau
TTITLE10=Quang Minh - Chiec la cuoi cung
TTITLE11=Xuan Phu - Cho nguoi tinh lo
EXTD=
EXTT0=
EXTT1=
EXTT2=
EXTT3=
EXTT4=
EXTT5=
EXTT6=
EXTT7=
EXTT8=
EXTT9=
EXTT10=
EXTT11=
PLAYORDER=
